<mxfile host="Electron" agent="Mozilla/5.0 (X11; Linux x86_64) AppleWebKit/537.36 (KHTML, like Gecko) draw.io/24.7.5 Chrome/126.0.6478.183 Electron/31.3.0 Safari/537.36" version="24.7.5">
  <diagram name="Page-1" id="BMGfN2AleFAIXJmAKwSa">
    <mxGraphModel dx="1185" dy="683" grid="1" gridSize="10" guides="1" tooltips="1" connect="1" arrows="1" fold="1" page="1" pageScale="1" pageWidth="850" pageHeight="1100" math="0" shadow="0">
      <root>
        <mxCell id="0" />
        <mxCell id="1" parent="0" />
        <mxCell id="G2gZIB6v_dK4ySC1F2k1-8" style="edgeStyle=orthogonalEdgeStyle;rounded=0;orthogonalLoop=1;jettySize=auto;html=1;exitX=1;exitY=0.5;exitDx=0;exitDy=0;entryX=0;entryY=0.5;entryDx=0;entryDy=0;" parent="1" source="G2gZIB6v_dK4ySC1F2k1-1" target="G2gZIB6v_dK4ySC1F2k1-6" edge="1">
          <mxGeometry relative="1" as="geometry" />
        </mxCell>
        <mxCell id="G2gZIB6v_dK4ySC1F2k1-9" value="Virtual Address" style="edgeLabel;html=1;align=center;verticalAlign=middle;resizable=0;points=[];" parent="G2gZIB6v_dK4ySC1F2k1-8" vertex="1" connectable="0">
          <mxGeometry x="-0.2167" y="-1" relative="1" as="geometry">
            <mxPoint x="9" y="-11" as="offset" />
          </mxGeometry>
        </mxCell>
        <mxCell id="G2gZIB6v_dK4ySC1F2k1-1" value="CPU" style="rounded=0;whiteSpace=wrap;html=1;" parent="1" vertex="1">
          <mxGeometry x="320" y="520" width="80" height="80" as="geometry" />
        </mxCell>
        <mxCell id="G2gZIB6v_dK4ySC1F2k1-22" style="edgeStyle=orthogonalEdgeStyle;rounded=0;orthogonalLoop=1;jettySize=auto;html=1;exitX=1;exitY=0.25;exitDx=0;exitDy=0;entryX=0;entryY=0.5;entryDx=0;entryDy=0;fillColor=#d5e8d4;strokeColor=#82b366;" parent="1" source="G2gZIB6v_dK4ySC1F2k1-5" target="G2gZIB6v_dK4ySC1F2k1-19" edge="1">
          <mxGeometry relative="1" as="geometry" />
        </mxCell>
        <mxCell id="G2gZIB6v_dK4ySC1F2k1-24" style="edgeStyle=orthogonalEdgeStyle;rounded=0;orthogonalLoop=1;jettySize=auto;html=1;exitX=1;exitY=0.75;exitDx=0;exitDy=0;entryX=0;entryY=0.5;entryDx=0;entryDy=0;fillColor=#f8cecc;strokeColor=#b85450;" parent="1" source="G2gZIB6v_dK4ySC1F2k1-5" target="G2gZIB6v_dK4ySC1F2k1-15" edge="1">
          <mxGeometry relative="1" as="geometry" />
        </mxCell>
        <mxCell id="G2gZIB6v_dK4ySC1F2k1-5" value="MMU" style="rounded=0;whiteSpace=wrap;html=1;" parent="1" vertex="1">
          <mxGeometry x="580" y="520" width="80" height="80" as="geometry" />
        </mxCell>
        <mxCell id="G2gZIB6v_dK4ySC1F2k1-11" style="edgeStyle=orthogonalEdgeStyle;rounded=0;orthogonalLoop=1;jettySize=auto;html=1;exitX=1;exitY=0.25;exitDx=0;exitDy=0;entryX=0;entryY=0.25;entryDx=0;entryDy=0;fillColor=#d5e8d4;strokeColor=#82b366;" parent="1" source="G2gZIB6v_dK4ySC1F2k1-6" target="G2gZIB6v_dK4ySC1F2k1-5" edge="1">
          <mxGeometry relative="1" as="geometry" />
        </mxCell>
        <mxCell id="G2gZIB6v_dK4ySC1F2k1-12" value="TLB Hit" style="edgeLabel;html=1;align=center;verticalAlign=middle;resizable=0;points=[];" parent="G2gZIB6v_dK4ySC1F2k1-11" vertex="1" connectable="0">
          <mxGeometry x="-0.2533" y="-1" relative="1" as="geometry">
            <mxPoint x="5" y="-10" as="offset" />
          </mxGeometry>
        </mxCell>
        <mxCell id="G2gZIB6v_dK4ySC1F2k1-23" style="edgeStyle=orthogonalEdgeStyle;rounded=0;orthogonalLoop=1;jettySize=auto;html=1;exitX=1;exitY=0.75;exitDx=0;exitDy=0;entryX=0;entryY=0.75;entryDx=0;entryDy=0;fillColor=#f8cecc;strokeColor=#b85450;" parent="1" source="G2gZIB6v_dK4ySC1F2k1-6" target="G2gZIB6v_dK4ySC1F2k1-5" edge="1">
          <mxGeometry relative="1" as="geometry" />
        </mxCell>
        <mxCell id="G2gZIB6v_dK4ySC1F2k1-25" value="TLB Miss" style="edgeLabel;html=1;align=center;verticalAlign=middle;resizable=0;points=[];" parent="G2gZIB6v_dK4ySC1F2k1-23" vertex="1" connectable="0">
          <mxGeometry x="-0.2" y="-1" relative="1" as="geometry">
            <mxPoint x="4" y="-10" as="offset" />
          </mxGeometry>
        </mxCell>
        <mxCell id="G2gZIB6v_dK4ySC1F2k1-6" value="TLB" style="rounded=0;whiteSpace=wrap;html=1;" parent="1" vertex="1">
          <mxGeometry x="480" y="520" width="40" height="80" as="geometry" />
        </mxCell>
        <mxCell id="G2gZIB6v_dK4ySC1F2k1-10" value="&amp;nbsp;" style="rounded=0;whiteSpace=wrap;html=1;fillColor=#f5f5f5;fontColor=#333333;strokeColor=#666666;" parent="1" vertex="1">
          <mxGeometry x="720" y="400" width="80" height="360" as="geometry" />
        </mxCell>
        <mxCell id="G2gZIB6v_dK4ySC1F2k1-13" value="Physical Memory" style="text;html=1;align=center;verticalAlign=middle;resizable=0;points=[];autosize=1;strokeColor=none;fillColor=none;" parent="1" vertex="1">
          <mxGeometry x="705" y="370" width="110" height="30" as="geometry" />
        </mxCell>
        <mxCell id="G2gZIB6v_dK4ySC1F2k1-14" value="PT Page" style="rounded=0;whiteSpace=wrap;html=1;" parent="1" vertex="1">
          <mxGeometry x="720" y="400" width="80" height="20" as="geometry" />
        </mxCell>
        <mxCell id="G2gZIB6v_dK4ySC1F2k1-26" style="edgeStyle=orthogonalEdgeStyle;rounded=0;orthogonalLoop=1;jettySize=auto;html=1;exitX=1;exitY=0.5;exitDx=0;exitDy=0;entryX=1;entryY=0.75;entryDx=0;entryDy=0;fillColor=#f8cecc;strokeColor=#b85450;" parent="1" source="G2gZIB6v_dK4ySC1F2k1-15" target="G2gZIB6v_dK4ySC1F2k1-18" edge="1">
          <mxGeometry relative="1" as="geometry" />
        </mxCell>
        <mxCell id="G2gZIB6v_dK4ySC1F2k1-15" value="PT Page" style="rounded=0;whiteSpace=wrap;html=1;" parent="1" vertex="1">
          <mxGeometry x="720" y="580" width="80" height="20" as="geometry" />
        </mxCell>
        <mxCell id="G2gZIB6v_dK4ySC1F2k1-17" value="Memory-mapped IO" style="rounded=0;whiteSpace=wrap;html=1;" parent="1" vertex="1">
          <mxGeometry x="720" y="680" width="80" height="80" as="geometry" />
        </mxCell>
        <mxCell id="G2gZIB6v_dK4ySC1F2k1-28" style="edgeStyle=orthogonalEdgeStyle;rounded=0;orthogonalLoop=1;jettySize=auto;html=1;exitX=1;exitY=0.25;exitDx=0;exitDy=0;entryX=1;entryY=0.5;entryDx=0;entryDy=0;fillColor=#f8cecc;strokeColor=#b85450;" parent="1" source="G2gZIB6v_dK4ySC1F2k1-18" target="G2gZIB6v_dK4ySC1F2k1-14" edge="1">
          <mxGeometry relative="1" as="geometry" />
        </mxCell>
        <mxCell id="G2gZIB6v_dK4ySC1F2k1-18" value="PT Page" style="rounded=0;whiteSpace=wrap;html=1;" parent="1" vertex="1">
          <mxGeometry x="720" y="480" width="80" height="20" as="geometry" />
        </mxCell>
        <mxCell id="G2gZIB6v_dK4ySC1F2k1-19" value="User Data" style="rounded=0;whiteSpace=wrap;html=1;" parent="1" vertex="1">
          <mxGeometry x="720" y="530" width="80" height="20" as="geometry" />
        </mxCell>
        <mxCell id="G2gZIB6v_dK4ySC1F2k1-20" value="Kernel Data" style="rounded=0;whiteSpace=wrap;html=1;" parent="1" vertex="1">
          <mxGeometry x="720" y="660" width="80" height="20" as="geometry" />
        </mxCell>
        <mxCell id="G2gZIB6v_dK4ySC1F2k1-21" value="Kernel Stack" style="rounded=0;whiteSpace=wrap;html=1;" parent="1" vertex="1">
          <mxGeometry x="720" y="640" width="80" height="20" as="geometry" />
        </mxCell>
        <mxCell id="G2gZIB6v_dK4ySC1F2k1-29" style="edgeStyle=orthogonalEdgeStyle;rounded=0;orthogonalLoop=1;jettySize=auto;html=1;exitX=0;exitY=0.5;exitDx=0;exitDy=0;entryX=0;entryY=0.25;entryDx=0;entryDy=0;fillColor=#f8cecc;strokeColor=#b85450;" parent="1" source="G2gZIB6v_dK4ySC1F2k1-14" target="G2gZIB6v_dK4ySC1F2k1-33" edge="1">
          <mxGeometry relative="1" as="geometry">
            <Array as="points">
              <mxPoint x="700" y="410" />
              <mxPoint x="700" y="445" />
            </Array>
          </mxGeometry>
        </mxCell>
        <mxCell id="G2gZIB6v_dK4ySC1F2k1-31" style="edgeStyle=orthogonalEdgeStyle;rounded=0;orthogonalLoop=1;jettySize=auto;html=1;fillColor=#f8cecc;strokeColor=#b85450;entryX=0.992;entryY=0.888;entryDx=0;entryDy=0;entryPerimeter=0;exitX=-0.01;exitY=0.895;exitDx=0;exitDy=0;exitPerimeter=0;" parent="1" source="G2gZIB6v_dK4ySC1F2k1-5" target="G2gZIB6v_dK4ySC1F2k1-6" edge="1">
          <mxGeometry relative="1" as="geometry">
            <mxPoint x="560" y="600" as="sourcePoint" />
            <mxPoint x="540" y="620" as="targetPoint" />
          </mxGeometry>
        </mxCell>
        <mxCell id="G2gZIB6v_dK4ySC1F2k1-32" value="TLB Fill" style="edgeLabel;html=1;align=center;verticalAlign=middle;resizable=0;points=[];" parent="G2gZIB6v_dK4ySC1F2k1-31" vertex="1" connectable="0">
          <mxGeometry x="-0.2" y="-1" relative="1" as="geometry">
            <mxPoint x="-5" y="9" as="offset" />
          </mxGeometry>
        </mxCell>
        <mxCell id="G2gZIB6v_dK4ySC1F2k1-34" style="edgeStyle=orthogonalEdgeStyle;rounded=0;orthogonalLoop=1;jettySize=auto;html=1;exitX=0;exitY=0.75;exitDx=0;exitDy=0;entryX=1;entryY=0.5;entryDx=0;entryDy=0;fillColor=#f8cecc;strokeColor=#b85450;" parent="1" source="G2gZIB6v_dK4ySC1F2k1-33" target="G2gZIB6v_dK4ySC1F2k1-5" edge="1">
          <mxGeometry relative="1" as="geometry" />
        </mxCell>
        <mxCell id="G2gZIB6v_dK4ySC1F2k1-35" value="PTE" style="edgeLabel;html=1;align=center;verticalAlign=middle;resizable=0;points=[];" parent="G2gZIB6v_dK4ySC1F2k1-34" vertex="1" connectable="0">
          <mxGeometry x="-0.0961" y="2" relative="1" as="geometry">
            <mxPoint as="offset" />
          </mxGeometry>
        </mxCell>
        <mxCell id="G2gZIB6v_dK4ySC1F2k1-33" value="PT Page" style="rounded=0;whiteSpace=wrap;html=1;" parent="1" vertex="1">
          <mxGeometry x="720" y="440" width="80" height="20" as="geometry" />
        </mxCell>
      </root>
    </mxGraphModel>
  </diagram>
</mxfile>
